<svg viewBox="0 0 230 48" xmlns="http://www.w3.org/2000/svg">
  <defs>
    <linearGradient id="fgL" x1="0.5" y1="0" x2="0.5" y2="1">
      <stop offset="0%" stop-color="#F97316"/>
      <stop offset="100%" stop-color="#ff6b00"/>
    </linearGradient>
  </defs>

  <!-- Icon mark for light mode -->
  <g transform="translate(0, 1)">
    <rect x="0" y="1" width="44" height="44" rx="12" fill="#ffffff"/>
    <rect x="0" y="1" width="44" height="44" rx="12" fill="none" stroke="rgba(0,0,0,0.06)" stroke-width="1"/>

    <!-- Head -->
    <path d="M22 10C15 10 10 16 10 23C10 32 14 38 22 40C30 38 34 32 34 23C34 16 29 10 22 10Z" fill="url(#fgL)" opacity="0.08"/>

    <!-- Eyes -->
    <ellipse cx="16" cy="22" rx="4.5" ry="5.5" fill="#050816" opacity="0.08"/>
    <ellipse cx="16" cy="22" rx="3" ry="3.5" fill="url(#fgL)"/>
    <circle cx="16.5" cy="22" r="1.2" fill="#050816" opacity="0.6"/>
    <ellipse cx="28" cy="22" rx="4.5" ry="5.5" fill="#050816" opacity="0.08"/>
    <ellipse cx="28" cy="22" rx="3" ry="3.5" fill="url(#fgL)"/>
    <circle cx="27.5" cy="22" r="1.2" fill="#050816" opacity="0.6"/>

    <!-- Central crest -->
    <path d="M21 10L20 16L21 20L22 26L23 20L24 16Z" fill="#F97316" opacity="0.15"/>
    <path d="M20.5 20C21 21 23 21 23.5 20L23 25L21 25Z" fill="#F97316" opacity="0.1"/>

    <!-- Nose + mouth -->
    <path d="M20 26C21 29 23 29 24 26" fill="none" stroke="#F97316" stroke-width="0.8" opacity="0.2"/>
    <path d="M18 30C20 33 24 33 26 30" fill="none" stroke="#F97316" stroke-width="0.7" opacity="0.15"/>

    <!-- Brows -->
    <path d="M12 18C14 16 18 15 22 15" fill="none" stroke="#F97316" stroke-width="0.8" opacity="0.2"/>
    <path d="M32 18C30 16 26 15 22 15" fill="none" stroke="#F97316" stroke-width="0.8" opacity="0.2"/>
  </g>

  <!-- Wordmark dark -->
  <text x="56" y="33" font-family="'Poly Sans', system-ui, -apple-system, sans-serif" font-weight="600" font-size="28" fill="#050816" letterSpacing="-0.5">
    kreature<tspan fill="#F97316" font-weight="600">.</tspan>
  </text>
</svg>
